# xmcd
#
# Track frame offsets: 
#        150
#        12646
#        26111
#        38726
#        50932
#        63224
#        75125
#        85193
#        97354
#        111880
#        125016
#        136948
#        149209
#        160399
#        171589
#        183065
#        194790
#        205738
#        217587
#        229030
#        242170
#        254842
#        267998
#        281076
#        293561
#        303653
#        314886
#        323874
#        334587
#        343887
#
# Disc length: 4718 seconds
#
# Revision: 1
# Processed by: cddbd v1.5.2PL0 Copyright (c) Steve Scherf et al.
# Submitted via: ExactAudioCopyFreeDBPlugin 1.0
#
DISCID=df126c1e
DTITLE=Various Artist - Please Mr Disc Jockey - CD2
DYEAR=2015
DGENRE=R&B
TTITLE0=Royal Jokers - You Tickle Me, Baby (1955)
TTITLE1=Cardinals - The Door Is Still Open (1955)
TTITLE2=Drifters - What'Cha Gonna Do (1954)
TTITLE3=Drifters - Gone (1953)
TTITLE4=Sh-Booms - Could It Be (1954)
TTITLE5=Sh-Booms - Pretty Wild (1955)
TTITLE6=Sh-Booms - Lu Lu (1955)
TTITLE7=Clovers - Love Bug (1954)
TTITLE8=Clovers - In The Morning Time (1954)
TTITLE9=Drifters - Everyone's Laughing (1954)
TTITLE10=Drifters - Three Thirty Three (1954)
TTITLE11=Drifters - Adorable (1955)
TTITLE12=Drifters - Steamboat (1955)
TTITLE13=Cardinals - Come Back My Love (1955)
TTITLE14=Cardinals - Two Things I Love (1955)
TTITLE15=Cookies - In Paradise (1955)
TTITLE16=Drifters - Ruby Baby (1955)
TTITLE17=Drifters - Your Promise To Be Mine (1955)
TTITLE18=Cardinals - The End Of The Story (1956)
TTITLE19=Cardinals - I Won't Make You Cry Anymore (1955)
TTITLE20=Robins - Smokey Joe's Cafe (1955)
TTITLE21=Robins - Just Like A Fool (1955)
TTITLE22=Coasters - One Kiss Led To Another (1956)
TTITLE23=Sensations - My Heart Cries For You (1955)
TTITLE24=Royal Jokers - Ride On Little Girl (1955)
TTITLE25=Royal Jokers - She's Mine All Mine (1956)
TTITLE26=Cardinals - Near You (1956)
TTITLE27=Cardinals - One Love (1956)
TTITLE28=Drifters - Hypnotized (1957)
TTITLE29=Bobbettes - Mr Lee (1957)
EXTD=
EXTT0=
EXTT1=
EXTT2=
EXTT3=
EXTT4=
EXTT5=
EXTT6=
EXTT7=
EXTT8=
EXTT9=
EXTT10=
EXTT11=
EXTT12=
EXTT13=
EXTT14=
EXTT15=
EXTT16=
EXTT17=
EXTT18=
EXTT19=
EXTT20=
EXTT21=
EXTT22=
EXTT23=
EXTT24=
EXTT25=
EXTT26=
EXTT27=
EXTT28=
EXTT29=
PLAYORDER=
